<?xml version="1.0" encoding="UTF-8" standalone="no"?><!DOCTYPE svg PUBLIC "-//W3C//DTD SVG 1.1//EN" "http://www.w3.org/Graphics/SVG/1.1/DTD/svg11.dtd"><svg width="100%" height="100%" viewBox="0 0 2238 924" version="1.1" xmlns="http://www.w3.org/2000/svg" xmlns:xlink="http://www.w3.org/1999/xlink" xml:space="preserve" xmlns:serif="http://www.serif.com/" style="fill-rule:evenodd;clip-rule:evenodd;stroke-linejoin:round;stroke-miterlimit:2;"><rect id="Artboard1" x="0" y="0" width="2237.157" height="924" style="fill:none;"/><g><path d="M1053.958,230.679l0,14.722l38.533,0l0,33.928l-38.533,0l0,152.23l-44.045,0l0,-152.23l-27.456,0l0,-33.928l27.456,0l0,-17.601c0,-12.551 2.625,-22.921 7.876,-31.302c5.189,-8.329 12.167,-14.53 21.002,-18.63c8.835,-4.099 18.56,-6.21 29.314,-6.21c7.623,0 14.339,0.637 20.296,1.858c5.887,1.212 10.239,2.303 13.056,3.262l-8.704,33.928c-1.858,-0.576 -4.221,-1.151 -7.047,-1.727c-2.808,-0.645 -6.009,-0.959 -9.463,-0.959c-8.137,0 -13.894,1.98 -17.287,5.887c-3.332,3.907 -4.998,9.542 -4.998,16.772" style="fill:#fff;fill-rule:nonzero;"/><path d="M1230.606,369.613c-2.817,9.577 -7.884,16.894 -14.644,22.528c-6.759,5.067 -14.644,7.884 -24.779,7.884c-10.143,0 -18.586,-2.817 -24.779,-7.884c-6.759,-5.634 -11.827,-12.952 -15.211,-22.528c-3.375,-9.01 -5.067,-19.153 -5.067,-30.413c0,-11.269 1.692,-21.961 5.067,-30.98c3.384,-9.577 8.451,-16.894 15.211,-21.961c6.192,-5.634 14.635,-8.451 24.779,-8.451c10.135,0 18.019,2.817 24.779,8.451c6.759,5.067 11.827,12.385 14.644,21.961c3.375,9.018 5.067,19.711 5.067,30.98c0,11.26 -1.692,21.403 -5.067,30.413m38.864,-81.104c-7.326,-14.077 -18.028,-25.345 -30.98,-33.797c-13.519,-7.876 -29.288,-11.818 -47.307,-11.818c-18.586,0 -33.797,3.942 -47.307,11.818c-13.519,8.451 -23.653,19.72 -30.98,33.797c-7.318,14.644 -11.269,31.538 -11.269,50.691c0,19.144 3.951,36.047 11.269,50.691c7.326,14.077 17.461,25.345 30.98,33.23c13.51,7.876 28.721,11.818 47.307,11.818c18.019,0 33.788,-3.942 47.307,-11.818c12.952,-7.884 23.653,-19.153 30.98,-33.23c7.318,-14.644 10.702,-31.547 10.702,-50.691c0,-19.153 -3.384,-36.047 -10.702,-50.691" style="fill:#fff;fill-rule:nonzero;"/><path d="M1399.007,242.891l-8.451,0c-10.702,0 -19.711,2.817 -28.163,8.443c-8.443,6.201 -14.077,14.086 -17.452,25.345l-2.259,0l0,-31.538l-42.24,0l0,186.428l43.932,0l0,-109.266c0,-7.884 1.692,-15.202 5.067,-21.403c3.942,-5.634 9.01,-10.702 15.211,-14.077c6.192,-3.384 13.51,-5.067 21.403,-5.067c3.942,0 7.884,0 11.827,0.558c3.942,0.567 6.759,1.125 8.443,1.692l0,-39.989c-1.683,-0.558 -4.5,-0.558 -7.318,-1.125" style="fill:#fff;fill-rule:nonzero;"/><path d="M1454.2,320.614c0.567,-6.759 2.25,-14.077 5.634,-20.278c3.942,-6.759 9.01,-12.385 15.769,-16.894c6.759,-3.942 14.644,-6.192 23.653,-6.192c8.451,0 15.769,1.692 21.961,5.626c6.759,3.942 11.827,9.018 15.211,15.778c3.384,6.192 5.067,14.077 5.067,21.961l-87.296,0Zm129.536,16.336c0,-16.336 -2.25,-30.413 -6.759,-42.248c-4.5,-11.827 -10.702,-21.395 -18.586,-29.288c-7.884,-7.318 -16.894,-13.51 -27.029,-16.894c-10.143,-3.942 -21.403,-5.626 -32.672,-5.626c-18.019,0 -33.221,3.942 -46.182,12.385c-13.519,7.884 -23.653,19.153 -30.971,33.797c-7.326,14.635 -10.702,31.538 -10.702,50.682c0,19.153 3.375,36.047 10.702,50.691c7.318,14.086 17.452,25.345 30.971,33.23c13.519,7.884 29.855,11.269 48.441,11.269c14.635,0 27.596,-2.259 38.864,-6.201c11.26,-4.5 20.269,-10.702 27.596,-18.586c7.318,-8.443 11.818,-17.461 14.644,-28.721l-41.123,-4.5c-1.683,5.059 -4.5,9.568 -8.443,13.51c-3.942,3.384 -8.451,6.192 -13.519,7.884c-5.067,1.692 -10.702,2.817 -17.461,2.817c-9.577,0 -17.461,-2.25 -24.779,-6.192c-7.318,-3.942 -12.952,-10.143 -16.894,-18.019c-3.384,-7.326 -5.634,-16.336 -5.634,-26.479l129.536,0l0,-13.51Z" style="fill:#fff;fill-rule:nonzero;"/><path d="M1759.459,274.994c-5.067,-10.135 -12.952,-18.019 -22.528,-23.653c-9.577,-5.634 -20.836,-8.451 -33.23,-8.451c-14.077,0 -25.904,3.384 -34.913,9.01c-9.577,6.192 -16.336,14.644 -20.845,25.345l-2.25,0l0,-32.105l-41.681,0l0,186.428l43.932,0l0,-109.266c0,-9.01 1.692,-16.327 5.067,-22.528c3.384,-6.759 7.884,-11.26 13.519,-14.644c6.201,-3.375 12.952,-5.067 20.845,-5.067c11.26,0 19.711,3.375 26.462,10.702c6.201,6.759 9.577,16.336 9.577,29.288l0,111.517l43.932,0l0,-118.276c0,-15.211 -2.817,-27.596 -7.884,-38.297" style="fill:#fff;fill-rule:nonzero;"/><path d="M1932.928,343.704c-8.451,-8.443 -21.403,-14.644 -39.422,-18.586l-31.547,-6.759c-9.568,-1.683 -16.327,-4.5 -20.269,-7.884c-3.942,-3.375 -6.192,-7.884 -6.192,-13.519c0,-6.192 3.375,-11.26 9.568,-15.202c5.634,-3.942 13.519,-6.201 22.528,-6.201c6.759,0 12.961,1.134 17.461,3.384c4.509,2.25 8.451,5.067 11.26,8.451c2.817,3.942 4.509,7.318 5.634,11.827l39.989,-4.509c-2.817,-15.769 -10.702,-28.721 -23.087,-37.73c-12.952,-9.577 -29.855,-14.086 -51.816,-14.086c-14.644,0 -27.604,2.25 -39.422,6.759c-11.269,5.067 -19.72,11.269 -26.479,19.711c-6.192,8.451 -9.568,18.586 -9.01,29.855c-0.558,14.077 3.942,24.779 12.394,33.788c8.443,9.018 21.961,15.211 39.989,19.153l31.538,6.192c8.451,2.25 14.644,4.509 19.153,8.451c3.934,3.375 5.626,7.884 5.626,12.952c0,6.192 -2.817,11.827 -9.01,15.769c-6.759,4.509 -15.202,6.759 -25.345,6.759c-10.135,0 -18.586,-2.25 -24.779,-6.759c-6.192,-3.942 -10.135,-10.702 -12.394,-19.153l-42.806,4.509c2.817,16.894 11.269,30.413 24.787,39.989c14.077,9.568 32.663,14.077 55.191,14.077c15.769,0 29.288,-2.25 41.114,-7.318c12.394,-5.067 21.403,-11.827 28.163,-20.845c6.759,-9.01 10.135,-19.144 10.135,-30.971c0,-13.519 -4.509,-24.22 -12.952,-32.105" style="fill:#fff;fill-rule:nonzero;"/><path d="M1987.296,218.952c-6.951,0 -12.934,-2.346 -17.941,-7.03c-5.006,-4.684 -7.509,-10.3 -7.509,-16.85c0,-6.541 2.503,-12.141 7.509,-16.789c5.006,-4.64 10.989,-6.969 17.941,-6.969c7.03,0 13.03,2.346 18.002,7.03c4.971,4.692 7.457,10.309 7.457,16.85c0,6.541 -2.486,12.141 -7.457,16.789c-4.971,4.649 -10.972,6.969 -18.002,6.969" style="fill:#fff;fill-rule:nonzero;"/><rect x="1965.24" y="245.378" width="43.879" height="186.184" style="fill:#fff;"/><rect x="1013.206" y="504.781" width="43.932" height="247.812" style="fill:#fff;"/><path d="M1192.872,685.571c0,6.759 -1.692,13.519 -5.634,19.153c-3.375,5.626 -8.443,10.702 -14.644,14.077c-6.192,3.384 -14.077,5.067 -23.087,5.067c-9.01,0 -16.336,-2.25 -22.528,-6.192c-5.634,-3.942 -8.451,-10.135 -8.451,-18.028c0,-5.626 1.125,-10.135 4.509,-14.077c2.817,-3.375 6.759,-6.192 11.827,-8.451c5.634,-1.683 11.26,-3.375 18.019,-3.934c2.817,-0.567 6.201,-1.134 10.143,-1.692c3.934,-0.567 7.876,-1.134 11.827,-1.692c3.942,-1.125 7.884,-1.692 10.693,-2.817c3.384,-1.125 5.634,-2.25 7.326,-3.384l0,21.97Zm36.614,-88.421c-4.509,-7.884 -10.143,-14.644 -17.461,-19.711c-7.326,-4.509 -15.211,-7.884 -24.22,-10.143c-9.01,-2.25 -18.019,-2.817 -27.037,-2.817c-12.952,0 -24.779,1.692 -35.48,5.634c-10.702,3.942 -19.711,9.577 -27.037,16.894c-7.318,7.893 -12.952,17.461 -15.769,28.73l40.556,5.626c2.25,-6.192 6.759,-11.818 12.952,-16.894c6.192,-4.509 14.644,-6.759 25.345,-6.759c10.135,0 18.019,2.25 23.087,7.326c5.634,5.067 8.451,12.385 8.451,21.403l0,0.558c0,4.509 -1.692,7.326 -5.067,9.577c-2.817,1.692 -7.884,3.375 -14.644,3.942c-6.759,1.125 -15.769,2.25 -26.471,3.384c-9.01,0.558 -17.461,2.25 -25.904,4.5c-8.451,2.25 -16.336,5.067 -23.095,9.577c-6.759,3.942 -11.827,9.577 -15.769,16.327c-3.942,6.759 -5.634,15.211 -5.634,25.912c0,12.385 2.817,22.528 7.884,30.98c5.634,7.884 12.952,14.077 22.528,18.586c9.577,3.942 19.711,6.192 31.538,6.192c9.577,0 18.019,-1.125 25.345,-3.942c7.318,-2.817 13.519,-6.192 18.019,-10.702c5.076,-4.509 8.451,-9.577 11.269,-14.644l1.692,0l0,25.904l41.673,0l0,-124.468c0,-12.385 -2.25,-22.528 -6.751,-30.971" style="fill:#fff;fill-rule:nonzero;"/><path d="M1391.122,690.642c-3.375,9.01 -8.451,16.336 -14.644,21.395c-6.759,5.076 -14.644,7.893 -24.22,7.893c-9.568,0 -17.461,-2.817 -23.653,-7.893c-6.759,-5.059 -11.827,-11.818 -15.202,-20.836c-3.384,-9.01 -5.076,-19.711 -5.076,-31.538c0,-12.385 1.692,-22.528 5.076,-31.538c3.375,-9.01 8.443,-15.769 14.644,-20.836c6.751,-4.509 14.644,-7.326 24.212,-7.326c9.577,0 17.461,2.817 24.22,7.884c6.759,5.076 11.269,11.827 14.644,20.845c3.375,9.01 5.067,19.144 5.067,30.971c0,11.269 -1.692,21.97 -5.067,30.98m39.422,-83.354c-6.759,-14.086 -15.769,-24.787 -27.596,-32.105c-11.26,-7.326 -24.22,-10.702 -38.864,-10.702c-10.702,0 -19.711,1.692 -27.029,5.067c-6.759,3.942 -12.394,8.451 -16.336,13.519c-4.509,5.067 -7.318,9.577 -9.577,14.077l-1.683,0l0,-92.364l-43.932,0l0,247.812l42.798,0l0,-29.288l2.817,0c2.259,4.509 5.634,9.01 9.577,14.077c4.5,5.076 10.135,9.577 16.894,12.961c7.326,3.375 15.769,5.067 26.471,5.067c14.644,0 27.604,-3.384 39.422,-11.269c11.269,-7.318 20.278,-18.019 27.037,-32.663c6.759,-14.077 10.143,-31.538 10.143,-51.816c0,-20.836 -3.384,-37.73 -10.143,-52.374" style="fill:#fff;fill-rule:nonzero;"/><path d="M1598.946,664.17c-8.451,-7.884 -21.97,-14.077 -39.422,-18.019l-31.547,-6.759c-9.568,-1.692 -16.327,-4.509 -20.269,-7.884c-3.942,-3.384 -6.201,-7.884 -6.201,-13.519c0,-6.192 3.384,-11.269 9.577,-15.202c6.201,-3.951 13.519,-6.201 22.528,-6.201c6.759,0 12.394,1.125 17.461,3.375c4.509,2.259 8.451,5.076 11.26,9.018c2.817,3.375 4.509,7.318 5.634,11.26l39.989,-4.5c-2.817,-15.778 -10.702,-28.163 -23.087,-37.739c-12.961,-9.01 -29.855,-13.519 -51.825,-13.519c-14.635,0 -27.596,2.259 -38.855,6.759c-11.827,4.509 -20.278,11.269 -26.471,19.711c-6.759,8.451 -9.577,18.028 -9.577,29.855c0,13.519 3.942,24.22 12.394,33.23c9.01,9.01 21.961,15.202 39.989,19.144l31.538,6.201c8.443,2.25 14.644,4.5 18.586,7.884c4.5,3.934 6.192,7.884 6.192,13.519c0,6.192 -2.817,11.26 -9.568,15.76c-6.201,4.509 -14.653,6.201 -24.787,6.201c-10.143,0 -18.019,-1.692 -24.779,-6.201c-6.201,-4.5 -10.135,-10.693 -12.394,-19.144l-42.24,4.5c2.25,16.903 10.702,30.422 24.779,39.989c13.519,9.577 32.105,14.086 54.633,14.086c15.769,0 29.288,-2.25 41.114,-7.326c11.827,-5.067 21.403,-12.385 28.163,-20.836c6.759,-9.01 10.135,-19.153 10.135,-30.98c0,-13.51 -4.509,-24.212 -12.952,-32.663" style="fill:#fff;fill-rule:nonzero;"/><path d="M948.789,677.528c0,81.025 -65.658,146.665 -146.665,146.665c-70.236,0 -128.925,-49.33 -143.307,-115.18l-114.56,0c-4.614,6.437 -9.838,12.603 -15.647,18.42c-57.267,57.267 -150.154,57.302 -207.421,0.035c-57.319,-57.328 -57.285,-150.198 0,-207.482c5.791,-5.809 11.966,-11.016 18.394,-15.647l0,-114.552c-65.841,-14.373 -115.18,-73.062 -115.18,-143.316c0,-81.008 65.658,-146.648 146.665,-146.665c81.017,0 146.718,65.658 146.718,146.665c0,21.098 -4.457,41.158 -12.481,59.291c-11.312,25.581 -29.724,47.316 -52.741,62.718c-14.94,9.995 -31.817,17.33 -49.95,21.307l0,88.962c16.563,-2.529 33.474,-2.215 49.95,0.933c17.967,3.419 35.428,10.248 51.354,20.435l48.345,-48.345c-28.232,-44.097 -30.552,-99.995 -6.916,-146.011c6.786,-13.24 15.743,-25.677 26.819,-36.762c57.267,-57.285 150.163,-57.25 207.447,0.035c57.267,57.276 57.267,150.128 0,207.412c-5.704,5.704 -11.774,10.841 -18.124,15.42c-48.851,35.192 -114.43,36.675 -164.667,4.483l-48.327,48.327c12.158,18.952 19.511,40.103 22.049,61.698c1.552,13.161 1.334,26.505 -0.689,39.614l88.962,0c3.079,-14.077 8.181,-27.378 14.993,-39.614c18.656,-33.544 50.054,-59.038 87.68,-69.861c12.9,-3.715 26.54,-5.704 40.635,-5.704c81.008,0 146.665,65.71 146.665,146.718" style="fill:#fff;fill-rule:nonzero;"/></g></svg>